<?xml version="1.0" standalone="no"?>
<!DOCTYPE svg PUBLIC "-//W3C//DTD SVG 20010904//EN"
 "http://www.w3.org/TR/2001/REC-SVG-20010904/DTD/svg10.dtd">
<svg version="1.0" xmlns="http://www.w3.org/2000/svg"
 width="512.000000pt" height="512.000000pt" viewBox="0 0 512.000000 512.000000"
 preserveAspectRatio="xMidYMid meet">
<metadata>
Created by potrace 1.14, written by Peter Selinger 2001-2017
</metadata>
<g transform="translate(0.000000,512.000000) scale(0.100000,-0.100000)"
fill="#000000" stroke="none">
<path d="M0 2560 l0 -2560 2560 0 2560 0 0 2560 0 2560 -2560 0 -2560 0 0
-2560z m3355 1185 c164 -39 303 -150 375 -299 50 -103 64 -175 57 -291 -13
-193 -35 -225 -416 -606 -328 -328 -366 -360 -483 -397 -76 -24 -275 -23 -343
1 -120 44 -233 131 -260 201 -13 35 -15 51 -6 83 36 133 174 166 286 69 73
-63 199 -72 279 -20 22 15 163 149 312 298 248 248 273 276 293 329 25 69 26
87 6 154 -20 67 -76 125 -149 152 -68 25 -77 26 -147 5 -49 -15 -70 -32 -236
-197 l-182 -180 -68 21 c-37 12 -108 26 -158 33 -94 12 -115 20 -115 48 0 10
111 128 248 263 223 221 254 249 323 282 130 64 258 81 384 51z m-760 -775
c153 -39 277 -133 305 -230 20 -69 -37 -158 -115 -180 -58 -16 -104 -4 -166
45 -50 39 -116 65 -163 65 -17 0 -56 -12 -86 -26 -45 -20 -106 -76 -333 -302
-153 -152 -288 -295 -300 -317 -31 -58 -30 -154 2 -218 27 -55 84 -102 145
-118 50 -14 133 -6 175 15 17 9 107 93 201 186 99 98 179 170 190 170 10 0 31
-5 47 -11 15 -6 35 -12 43 -14 8 -2 33 -7 55 -13 22 -5 67 -11 100 -12 62 -1
85 -12 85 -39 0 -23 -485 -502 -545 -538 -87 -51 -149 -67 -276 -70 -96 -2
-126 1 -180 19 -168 57 -294 180 -361 353 -20 52 -23 78 -23 185 1 139 16 193
83 300 38 62 557 589 640 652 143 107 309 141 477 98z"/>
</g>
</svg>
